<svg width="188" height="86" viewBox="0 0 188 86" fill="none" xmlns="http://www.w3.org/2000/svg">
<path d="M13.7355 2C16.9436 2 19.5473 5.08621 19.5473 8.89344C19.5473 12.7007 16.9436 15.7899 13.7355 15.7899C10.5248 15.7899 7.92364 12.7007 7.92364 8.89344C7.92364 5.08621 10.5248 2 13.7355 2ZM43.7839 61.4918C43.7034 61.6151 43.6028 61.7185 43.4877 61.7959C43.3727 61.8734 43.2457 61.9234 43.114 61.9431C42.9823 61.9627 42.8486 61.9516 42.7206 61.9104C42.5926 61.8692 42.4729 61.7987 42.3684 61.703C40.8939 60.2231 39.6985 58.4017 38.8581 56.3541C37.5666 53.2257 36.6005 48.2057 39.3489 42.0544C43.8434 31.9963 40.1832 28.2645 40.147 28.2283C40.1201 28.2026 40.0942 28.1754 40.0695 28.1468L36.8459 24.2913C36.5326 24.3744 36.2063 24.3625 35.898 24.2569C35.5897 24.1513 35.3096 23.9555 35.0843 23.688L32.9817 21.193L30.1739 25.7726C29.8598 26.2877 29.4242 26.6849 28.9201 26.9158C28.416 27.1467 27.8653 27.2012 27.3352 27.0728L21.1307 25.5403V28.53L20.1337 28.5722L12.989 21.5249L19.1986 31.8062L28.8049 31.402C29.1892 31.2258 29.6016 31.1492 30.0137 31.1774C30.4258 31.2056 30.8278 31.338 31.1918 31.5654C31.5558 31.7927 31.8732 32.1097 32.1221 32.4944C32.3709 32.8791 32.5453 33.3223 32.6332 33.7934C32.7211 34.2644 32.7203 34.7522 32.631 35.2229C32.5417 35.6936 32.3659 36.1361 32.1159 36.5197C31.8658 36.9033 31.5474 37.219 31.1827 37.4448C30.818 37.6707 30.4156 37.8013 30.0034 37.8278C29.7124 37.9609 29.404 38.0354 29.0916 38.048L17.8967 38.5187C17.4326 38.5369 16.972 38.4195 16.5566 38.1772C16.1411 37.9348 15.7841 37.5752 15.5178 37.1309L8.6598 25.7816C8.6598 25.7816 12.3174 36.1897 13.3351 38.9953C13.9989 40.8416 15.6056 41.6019 17.5403 41.7105C17.6901 41.7195 21.1307 41.5807 21.1307 41.5807V45.9129L24.2898 56.1309C24.5067 56.8338 24.5532 57.5971 24.4215 58.3332L21.1178 76.8384C21.0291 77.3464 20.8555 77.829 20.607 78.2586C20.3586 78.6882 20.04 79.0564 19.6696 79.3422C19.2993 79.6279 18.8843 79.8257 18.4485 79.924C18.0126 80.0224 17.5645 80.0195 17.1296 79.9155C16.2504 79.6859 15.4844 79.0601 14.9982 78.1742C14.512 77.2883 14.3451 76.2141 14.5336 75.1852L17.6384 57.8022L14.3063 47.0231C14.2601 46.8709 14.1747 46.7391 14.0619 46.6457C13.9491 46.5523 13.8143 46.5018 13.6761 46.5012C13.5017 46.5018 13.3343 46.5814 13.209 46.7232C13.0838 46.8649 13.0105 47.0579 13.0045 47.2614L12.5602 59.38C12.5447 59.8446 12.4569 60.3032 12.3096 60.7346L6.47713 77.5262C5.94245 79.0648 4.68967 80 3.36716 80C2.93837 80 2.50442 79.9004 2.08597 79.6983C1.25589 79.2842 0.598701 78.5052 0.256483 77.5297C-0.0857353 76.5542 -0.0854851 75.4605 0.257179 74.4853L6.28082 58.3422V22.6019C6.28082 20.0316 8.03729 17.9439 10.207 17.9439H17.4602C17.7108 17.9439 17.9639 17.9741 18.2119 18.0344L26.7075 20.1221L28.9676 16.4355L27.3739 14.547C26.7437 14.739 26.0812 14.7333 25.4535 14.5304C24.8257 14.3276 24.255 13.9347 23.799 13.3915C23.4398 12.9631 23.1578 12.455 22.9694 11.8972C22.7811 11.3394 22.6902 10.7432 22.7023 10.1438C22.7143 9.54435 22.829 8.9538 23.0395 8.40694C23.2501 7.86008 23.5522 7.36799 23.9281 6.95966C24.61 6.2303 25.4997 5.82299 26.4243 5.81686C27.349 5.81073 28.2425 6.20621 28.9315 6.92648C30.0241 8.08192 30.4012 9.79849 30.068 11.3461L31.2381 12.7308C31.4541 12.3751 31.7294 12.0739 32.0474 11.8454C32.3655 11.6168 32.7197 11.4656 33.089 11.4009C33.4583 11.3361 33.8349 11.359 34.1964 11.4683C34.5579 11.5776 34.8968 11.771 35.1928 12.037C36.4249 13.1411 36.6238 15.2559 35.7145 16.7342L35.2522 17.4884L37.781 20.4841C38.2666 21.0603 38.4345 21.8718 38.2872 22.6109L41.4799 26.4272C42.0223 27.0004 46.1681 31.9118 41.1338 43.1766C39.2481 47.4002 39.0931 51.4759 40.674 55.2982C41.8622 58.1733 43.5928 59.7933 43.6109 59.8084C44.05 60.2157 44.1301 60.9699 43.7865 61.4918H43.7839Z" fill="#FF5400"/>
<path d="M58.0977 37.2422C57.3802 37.2422 56.6875 37.502 56.0195 38.0215C55.3763 38.5163 54.7578 39.209 54.1641 40.0996C53.5703 40.9655 52.9889 41.9922 52.4199 43.1797C51.8757 44.3424 51.3314 45.5918 50.7871 46.9277V47.373C50.7129 49.5501 50.6387 51.8633 50.5645 54.3125C50.515 56.7617 50.4902 59.4336 50.4902 62.3281C50.4902 62.8229 50.3171 63.2435 49.9707 63.5898C49.6491 63.9115 49.2656 64.1836 48.8203 64.4062C48.375 64.6042 47.9173 64.7526 47.4473 64.8516C46.9772 64.9505 46.5938 65 46.2969 65C45.9258 65 45.5794 64.8887 45.2578 64.666C44.9362 64.4434 44.7754 63.9486 44.7754 63.1816C44.7754 62.8105 44.8125 62.3529 44.8867 61.8086C44.9609 61.2396 45.0599 60.6335 45.1836 59.9902C45.2826 59.347 45.4062 58.6914 45.5547 58.0234C45.6784 57.3307 45.8021 56.6875 45.9258 56.0938C45.9258 53.9909 45.9258 52.0983 45.9258 50.416C45.901 48.7337 45.8887 47.237 45.8887 45.9258C45.8887 44.6146 45.8887 43.4642 45.8887 42.4746C45.8639 41.485 45.8516 40.6315 45.8516 39.9141C45.8516 38.7266 45.8763 37.8607 45.9258 37.3164C45.9505 36.7474 46 36.3516 46.0742 36.1289C46.1979 35.7826 46.4206 35.5104 46.7422 35.3125C47.0885 35.1146 47.4473 34.9661 47.8184 34.8672C48.1895 34.7435 48.5605 34.6693 48.9316 34.6445C49.3027 34.6198 49.5872 34.6074 49.7852 34.6074C50.2552 34.6074 50.5645 34.7435 50.7129 35.0156C50.8613 35.2878 50.9355 35.7083 50.9355 36.2773C50.9355 37.5638 50.9355 38.7266 50.9355 39.7656C50.9355 40.8047 50.9108 41.8438 50.8613 42.8828C51.3314 41.7695 51.8757 40.7181 52.4941 39.7285C53.1374 38.7142 53.8424 37.8359 54.6094 37.0938C55.3763 36.3268 56.1803 35.7207 57.0215 35.2754C57.8874 34.8301 58.778 34.6074 59.6934 34.6074C60.8066 34.6074 61.722 34.8424 62.4395 35.3125C63.1816 35.7578 63.763 36.3887 64.1836 37.2051C64.6289 38.0215 64.9505 38.9863 65.1484 40.0996C65.3711 41.1882 65.5195 42.3757 65.5938 43.6621C66.2865 42.4004 67.0286 41.2253 67.8203 40.1367C68.6367 39.0234 69.4902 38.0586 70.3809 37.2422C71.2962 36.4258 72.2487 35.7826 73.2383 35.3125C74.2526 34.8424 75.304 34.6074 76.3926 34.6074C78.2728 34.6074 79.6458 35.2012 80.5117 36.3887C81.3776 37.5514 81.8105 39.1348 81.8105 41.1387C81.8105 42.4004 81.7116 43.8105 81.5137 45.3691C81.3158 46.9277 81.1055 48.5111 80.8828 50.1191C80.6602 51.7025 80.4499 53.2611 80.252 54.7949C80.054 56.3288 79.9551 57.7266 79.9551 58.9883C79.9551 60.5221 80.3385 61.2891 81.1055 61.2891C81.5013 61.2891 81.9342 61.054 82.4043 60.584C82.8743 60.0892 83.4062 59.347 84 58.3574C84.6185 57.3431 85.3236 56.069 86.1152 54.5352C86.9316 53.0013 87.8717 51.1706 88.9355 49.043L89.3066 48.2637L90.8281 49.4141L90.457 50.1934C88.9974 53.1126 87.748 55.5247 86.709 57.4297C85.6947 59.3346 84.7793 60.8561 83.9629 61.9941C83.1465 63.1074 82.3672 63.8867 81.625 64.332C80.9076 64.7773 80.1035 65 79.2129 65C78.6934 65 78.1862 64.9258 77.6914 64.7773C77.1966 64.6289 76.7637 64.3691 76.3926 63.998C76.0215 63.627 75.7246 63.1322 75.502 62.5137C75.2793 61.8704 75.168 61.054 75.168 60.0645C75.168 58.5801 75.2669 56.9102 75.4648 55.0547C75.6628 53.1992 75.8854 51.3438 76.1328 49.4883C76.3802 47.6328 76.6029 45.8887 76.8008 44.2559C76.9987 42.5983 77.0977 41.25 77.0977 40.2109C77.0977 39.2956 76.8997 38.5658 76.5039 38.0215C76.1081 37.4525 75.5143 37.168 74.7227 37.168C73.931 37.168 73.1022 37.4772 72.2363 38.0957C71.3952 38.7142 70.5664 39.5182 69.75 40.5078C68.9583 41.4727 68.2038 42.5612 67.4863 43.7734C66.7936 44.9857 66.1875 46.1855 65.668 47.373C65.668 49.9707 65.6432 52.2467 65.5938 54.2012C65.5443 56.1309 65.4701 57.7637 65.3711 59.0996C65.2969 60.4355 65.1855 61.4993 65.0371 62.291C64.8887 63.0579 64.7279 63.5775 64.5547 63.8496C64.431 64.0228 64.2207 64.1836 63.9238 64.332C63.627 64.4805 63.293 64.6042 62.9219 64.7031C62.5755 64.8021 62.2292 64.8763 61.8828 64.9258C61.5612 64.9753 61.3138 65 61.1406 65C60.7448 65 60.3984 64.8887 60.1016 64.666C59.8294 64.4186 59.6934 63.9486 59.6934 63.2559C59.6934 62.9342 59.7181 62.5013 59.7676 61.957C59.8418 61.4128 59.9284 60.8066 60.0273 60.1387C60.1263 59.4707 60.2376 58.7533 60.3613 57.9863C60.485 57.2194 60.6087 56.4401 60.7324 55.6484C60.7572 54.9062 60.7819 54.0775 60.8066 53.1621C60.8314 52.2467 60.8561 51.3438 60.8809 50.4531C60.9056 49.5378 60.918 48.6719 60.918 47.8555C60.9427 47.0143 60.9551 46.2969 60.9551 45.7031C60.9551 44.4414 60.918 43.291 60.8438 42.252C60.7695 41.2129 60.6211 40.3223 60.3984 39.5801C60.2005 38.8379 59.916 38.2689 59.5449 37.873C59.1738 37.4525 58.6914 37.2422 58.0977 37.2422ZM104.559 56.9473C104.435 57.1452 104.249 57.4915 104.002 57.9863C103.779 58.4564 103.482 58.9883 103.111 59.582C102.765 60.1758 102.344 60.7943 101.85 61.4375C101.38 62.0807 100.835 62.6621 100.217 63.1816C99.5983 63.7012 98.9056 64.1341 98.1387 64.4805C97.3965 64.8268 96.5677 65 95.6523 65C94.9349 65 94.1927 64.8516 93.4258 64.5547C92.6589 64.2578 91.9414 63.7135 91.2734 62.9219C90.6302 62.1302 90.0983 61.054 89.6777 59.6934C89.2572 58.3079 89.0469 56.5267 89.0469 54.3496C89.0469 52.2715 89.1211 50.1934 89.2695 48.1152C89.418 46.0124 89.5911 44.0951 89.7891 42.3633C90.0117 40.6315 90.222 39.1842 90.4199 38.0215C90.6178 36.8587 90.7663 36.1536 90.8652 35.9062C90.9642 35.6836 91.1621 35.4857 91.459 35.3125C91.7559 35.1393 92.0898 35.0033 92.4609 34.9043C92.8568 34.8053 93.2526 34.7311 93.6484 34.6816C94.069 34.6322 94.4277 34.6074 94.7246 34.6074C95.1204 34.6074 95.4297 34.7064 95.6523 34.9043C95.8997 35.1022 96.0234 35.4362 96.0234 35.9062C96.0234 36.1289 95.974 36.5742 95.875 37.2422C95.8008 37.8854 95.7018 38.6771 95.5781 39.6172C95.4544 40.5573 95.3184 41.5964 95.1699 42.7344C95.0462 43.8724 94.9225 45.0352 94.7988 46.2227C94.6751 47.3854 94.5638 48.5482 94.4648 49.7109C94.3906 50.849 94.3535 51.888 94.3535 52.8281C94.3535 55.5247 94.638 57.5286 95.207 58.8398C95.8008 60.151 96.7656 60.8066 98.1016 60.8066C99.2396 60.8066 100.39 59.9779 101.553 58.3203C102.74 56.6628 103.767 54.2507 104.633 51.084C104.757 49.748 104.868 48.3255 104.967 46.8164C105.09 45.2826 105.202 43.8353 105.301 42.4746C105.4 41.0892 105.486 39.8522 105.561 38.7637C105.66 37.6751 105.746 36.8958 105.82 36.4258C105.895 36.0794 106.092 35.7949 106.414 35.5723C106.736 35.3249 107.094 35.1393 107.49 35.0156C107.911 34.8672 108.307 34.7682 108.678 34.7188C109.074 34.6445 109.37 34.6074 109.568 34.6074C109.989 34.6074 110.273 34.7064 110.422 34.9043C110.595 35.0775 110.682 35.362 110.682 35.7578C110.682 36.1042 110.645 36.7721 110.57 37.7617C110.521 38.7266 110.447 39.8646 110.348 41.1758C110.273 42.4622 110.187 43.8477 110.088 45.332C109.989 46.8164 109.89 48.2513 109.791 49.6367C109.717 50.9974 109.643 52.2344 109.568 53.3477C109.519 54.4609 109.494 55.3021 109.494 55.8711C109.494 57.5534 109.581 58.877 109.754 59.8418C109.952 60.8066 110.372 61.2891 111.016 61.2891C111.486 61.2891 111.993 60.9922 112.537 60.3984C113.106 59.7799 113.712 58.9264 114.355 57.8379C115.023 56.7493 115.741 55.4629 116.508 53.9785C117.275 52.4694 118.104 50.8242 118.994 49.043L119.365 48.2637L120.887 49.4141L120.516 50.1934C119.328 52.5436 118.277 54.6465 117.361 56.502C116.471 58.3327 115.617 59.8789 114.801 61.1406C113.984 62.4023 113.156 63.3672 112.314 64.0352C111.473 64.6784 110.533 65 109.494 65C108.529 65 107.725 64.8145 107.082 64.4434C106.464 64.0723 105.969 63.5404 105.598 62.8477C105.227 62.1549 104.954 61.3138 104.781 60.3242C104.633 59.3346 104.559 58.209 104.559 56.9473ZM141.074 52.0859C141.074 53.7682 140.814 55.3887 140.295 56.9473C139.8 58.4811 139.058 59.8542 138.068 61.0664C137.104 62.2539 135.891 63.2064 134.432 63.9238C132.997 64.6413 131.352 65 129.496 65C128.16 65 126.96 64.7897 125.896 64.3691C124.857 63.9238 123.967 63.3424 123.225 62.625C122.482 61.8828 121.913 61.054 121.518 60.1387C121.122 59.1986 120.924 58.2337 120.924 57.2441C120.924 56.2546 121.109 55.3392 121.48 54.498C121.876 53.6322 122.396 52.9023 123.039 52.3086C123.707 51.6901 124.462 51.2077 125.303 50.8613C126.144 50.515 127.035 50.3418 127.975 50.3418C128.568 50.3418 129.187 50.416 129.83 50.5645V51.6406C129.038 51.6406 128.259 51.8014 127.492 52.123C126.75 52.4447 126.082 52.89 125.488 53.459C124.919 54.0033 124.462 54.6712 124.115 55.4629C123.769 56.2298 123.596 57.0586 123.596 57.9492C123.596 59.582 124.152 60.8932 125.266 61.8828C126.404 62.8477 127.95 63.3301 129.904 63.3301C130.894 63.3301 131.797 63.1445 132.613 62.7734C133.43 62.3776 134.122 61.8457 134.691 61.1777C135.285 60.485 135.73 59.6686 136.027 58.7285C136.349 57.7884 136.51 56.7617 136.51 55.6484C136.51 54.5846 136.299 53.5951 135.879 52.6797C135.458 51.7643 134.902 50.8984 134.209 50.082C133.516 49.2656 132.725 48.4987 131.834 47.7812C130.968 47.0638 130.077 46.3835 129.162 45.7402C128.271 45.0723 127.393 44.429 126.527 43.8105C125.661 43.1921 124.907 42.5736 124.264 41.9551L120.553 50.1934L119.031 49.043L122.816 40.7676C121.901 39.9017 121.221 39.0853 120.775 38.3184C120.355 37.5267 120.145 36.5866 120.145 35.498C120.145 34.9043 120.243 34.3477 120.441 33.8281C120.664 33.2839 120.949 32.8262 121.295 32.4551C121.666 32.0592 122.087 31.75 122.557 31.5273C123.027 31.3047 123.521 31.1934 124.041 31.1934C124.981 31.1934 125.686 31.4655 126.156 32.0098C126.626 32.5293 126.861 33.1849 126.861 33.9766C126.861 34.3477 126.824 34.7435 126.75 35.1641C126.676 35.5599 126.577 35.9681 126.453 36.3887C126.354 36.7845 126.243 37.1556 126.119 37.502C126.02 37.8483 125.934 38.1452 125.859 38.3926C126.602 38.9616 127.492 39.5182 128.531 40.0625C129.57 40.582 130.646 41.1263 131.76 41.6953C132.898 42.2643 134.023 42.8828 135.137 43.5508C136.25 44.2188 137.24 44.9609 138.105 45.7773C138.996 46.5938 139.714 47.5215 140.258 48.5605C140.802 49.5996 141.074 50.7747 141.074 52.0859ZM124.115 32.8633C123.769 32.8633 123.484 32.987 123.262 33.2344C123.064 33.457 122.965 33.7663 122.965 34.1621C122.965 34.6074 123.076 35.1022 123.299 35.6465C123.521 36.1908 123.917 36.7227 124.486 37.2422C124.734 36.7227 124.919 36.2155 125.043 35.7207C125.191 35.2259 125.266 34.7311 125.266 34.2363C125.266 33.8405 125.154 33.5189 124.932 33.2715C124.734 32.9993 124.462 32.8633 124.115 32.8633ZM146.01 48.6719L145.639 49.4141L145.268 50.1934L143.746 49.043L144.117 48.2637C144.736 47.002 145.243 45.7402 145.639 44.4785C146.059 43.1921 146.393 41.9922 146.641 40.8789C146.913 39.7656 147.135 38.7884 147.309 37.9473C147.482 37.1061 147.655 36.5 147.828 36.1289C147.977 35.832 148.187 35.597 148.459 35.4238C148.756 35.2259 149.053 35.0651 149.35 34.9414C149.671 34.8177 149.968 34.7311 150.24 34.6816C150.537 34.6322 150.747 34.6074 150.871 34.6074C151.415 34.6074 151.774 34.7188 151.947 34.9414C152.145 35.1641 152.244 35.5599 152.244 36.1289C152.244 36.401 152.182 37.0814 152.059 38.1699C151.96 39.2337 151.836 40.582 151.688 42.2148C151.564 43.8229 151.44 45.6413 151.316 47.6699C151.217 49.6738 151.168 51.752 151.168 53.9043C151.168 55.4629 151.242 56.6999 151.391 57.6152C151.539 58.5059 151.725 59.1738 151.947 59.6191C152.195 60.0645 152.454 60.349 152.727 60.4727C153.023 60.5964 153.32 60.6582 153.617 60.6582C154.013 60.6582 154.458 60.485 154.953 60.1387C155.448 59.7923 156.029 59.1862 156.697 58.3203C157.365 57.4297 158.132 56.2422 158.998 54.7578C159.864 53.2487 160.878 51.3438 162.041 49.043L162.449 48.2637L163.971 49.4141L163.562 50.1934C162.622 52.0241 161.682 53.8301 160.742 55.6113C159.827 57.3926 158.887 58.9759 157.922 60.3613C156.982 61.7467 156.029 62.8724 155.064 63.7383C154.1 64.5794 153.135 65 152.17 65C151.156 65 150.277 64.8021 149.535 64.4062C148.818 63.9857 148.212 63.3053 147.717 62.3652C147.247 61.4251 146.888 60.1882 146.641 58.6543C146.418 57.0957 146.307 55.1784 146.307 52.9023C146.307 52.2591 146.307 51.5911 146.307 50.8984C146.307 50.181 146.331 49.4388 146.381 48.6719H146.01ZM153.617 27C153.617 27.8659 153.32 28.5957 152.727 29.1895C152.158 29.7585 151.44 30.043 150.574 30.043C149.733 30.043 149.016 29.7585 148.422 29.1895C147.828 28.5957 147.531 27.8659 147.531 27C147.531 26.1589 147.828 25.4414 148.422 24.8477C149.016 24.2539 149.733 23.957 150.574 23.957C151.44 23.957 152.158 24.2539 152.727 24.8477C153.32 25.4414 153.617 26.1589 153.617 27ZM174.992 43.8105C175.289 43.3405 175.536 42.7591 175.734 42.0664C175.957 41.3737 176.068 40.681 176.068 39.9883C176.068 39.1471 175.858 38.4173 175.438 37.7988C175.017 37.1803 174.262 36.8711 173.174 36.8711C172.456 36.8711 171.727 37.1309 170.984 37.6504C170.242 38.1699 169.549 38.9492 168.906 39.9883C168.288 41.0273 167.781 42.3385 167.385 43.9219C166.989 45.5052 166.791 47.3607 166.791 49.4883C166.791 51.1706 166.964 52.7044 167.311 54.0898C167.657 55.4753 168.164 56.6628 168.832 57.6523C169.5 58.6419 170.304 59.4212 171.244 59.9902C172.209 60.5345 173.285 60.8066 174.473 60.8066C175.339 60.8066 176.217 60.584 177.107 60.1387C178.023 59.6934 178.938 59.0007 179.854 58.0605C180.794 57.1204 181.758 55.9082 182.748 54.4238C183.738 52.9147 184.752 51.1211 185.791 49.043L186.162 48.2637L187.684 49.4141L187.312 50.1934C185.977 52.8405 184.641 55.1042 183.305 56.9844C181.993 58.8646 180.695 60.3984 179.408 61.5859C178.122 62.7734 176.86 63.6393 175.623 64.1836C174.411 64.7279 173.236 65 172.098 65C170.49 65 169.055 64.666 167.793 63.998C166.531 63.3301 165.467 62.4271 164.602 61.2891C163.736 60.1263 163.068 58.7904 162.598 57.2812C162.152 55.7474 161.93 54.1393 161.93 52.457C161.93 49.7852 162.288 47.3607 163.006 45.1836C163.748 42.9818 164.701 41.1016 165.863 39.543C167.026 37.9844 168.337 36.7721 169.797 35.9062C171.257 35.0404 172.729 34.6074 174.213 34.6074C175.351 34.6074 176.303 34.7682 177.07 35.0898C177.837 35.4115 178.456 35.8197 178.926 36.3145C179.396 36.8092 179.73 37.3411 179.928 37.9102C180.126 38.4792 180.225 39.0234 180.225 39.543C180.225 40.0625 180.113 40.6068 179.891 41.1758C179.668 41.7201 179.334 42.2396 178.889 42.7344C178.468 43.2044 177.961 43.6374 177.367 44.0332C176.773 44.4043 176.105 44.6764 175.363 44.8496L174.992 43.8105Z" fill="white"/>
<path d="M46.9199 79.8311C46.1159 79.5999 45.5299 79.3167 45.1621 78.9814C44.7975 78.6429 44.6152 78.2262 44.6152 77.7314C44.6152 77.1715 44.8382 76.7093 45.2842 76.3447C45.7334 75.9769 46.3161 75.793 47.0322 75.793C47.5205 75.793 47.9551 75.8874 48.3359 76.0762C48.7201 76.265 49.0163 76.5254 49.2246 76.8574C49.4362 77.1895 49.542 77.5524 49.542 77.9463H48.5996C48.5996 77.5166 48.4629 77.1797 48.1895 76.9355C47.916 76.6882 47.5303 76.5645 47.0322 76.5645C46.57 76.5645 46.2087 76.667 45.9482 76.8721C45.6911 77.0739 45.5625 77.3555 45.5625 77.7168C45.5625 78.0065 45.6846 78.2523 45.9287 78.4541C46.1761 78.6527 46.5944 78.835 47.1836 79.001C47.776 79.167 48.2383 79.3509 48.5703 79.5527C48.9056 79.7513 49.153 79.984 49.3125 80.251C49.4753 80.5179 49.5566 80.832 49.5566 81.1934C49.5566 81.7695 49.332 82.2318 48.8828 82.5801C48.4336 82.9251 47.833 83.0977 47.0811 83.0977C46.5928 83.0977 46.137 83.0049 45.7139 82.8193C45.2907 82.6305 44.9635 82.3734 44.7324 82.0479C44.5046 81.7223 44.3906 81.3529 44.3906 80.9395H45.333C45.333 81.3691 45.4909 81.7093 45.8066 81.96C46.1257 82.2074 46.5505 82.3311 47.0811 82.3311C47.5758 82.3311 47.9551 82.2301 48.2188 82.0283C48.4824 81.8265 48.6143 81.5514 48.6143 81.2031C48.6143 80.8548 48.4922 80.5863 48.248 80.3975C48.0039 80.2054 47.5612 80.0166 46.9199 79.8311ZM54.7812 79.7139H51.7002V82.2334H55.2793V83H50.7627V75.8906H55.2305V76.6621H51.7002V78.9473H54.7812V79.7139ZM60.3721 81.1445H57.3936L56.7246 83H55.7578L58.4727 75.8906H59.293L62.0127 83H61.0508L60.3721 81.1445ZM57.6768 80.373H60.0938L58.8828 77.0479L57.6768 80.373ZM65.5771 80.124H63.9072V83H62.9648V75.8906H65.3184C66.1191 75.8906 66.7344 76.0729 67.1641 76.4375C67.597 76.8021 67.8135 77.3327 67.8135 78.0293C67.8135 78.472 67.693 78.8577 67.4521 79.1865C67.2145 79.5153 66.8825 79.7611 66.4561 79.9238L68.126 82.9414V83H67.1201L65.5771 80.124ZM63.9072 79.3574H65.3477C65.8132 79.3574 66.1826 79.237 66.4561 78.9961C66.7327 78.7552 66.8711 78.4329 66.8711 78.0293C66.8711 77.5898 66.7393 77.2529 66.4756 77.0186C66.2152 76.7842 65.8376 76.6654 65.3428 76.6621H63.9072V79.3574ZM74.3613 80.7441C74.2734 81.4961 73.9951 82.0771 73.5264 82.4873C73.0609 82.8942 72.4408 83.0977 71.666 83.0977C70.8262 83.0977 70.1523 82.7965 69.6445 82.1943C69.14 81.5921 68.8877 80.7865 68.8877 79.7773V79.0938C68.8877 78.4329 69.0049 77.8519 69.2393 77.3506C69.4769 76.8493 69.8122 76.4652 70.2451 76.1982C70.6781 75.9281 71.1794 75.793 71.749 75.793C72.5042 75.793 73.1097 76.0046 73.5654 76.4277C74.0212 76.8477 74.2865 77.4303 74.3613 78.1758H73.4189C73.3376 77.6094 73.1602 77.1992 72.8867 76.9453C72.6165 76.6914 72.2373 76.5645 71.749 76.5645C71.1501 76.5645 70.6797 76.7858 70.3379 77.2285C69.9993 77.6712 69.8301 78.3011 69.8301 79.1182V79.8066C69.8301 80.5781 69.9912 81.1917 70.3135 81.6475C70.6357 82.1032 71.0866 82.3311 71.666 82.3311C72.1868 82.3311 72.5856 82.2139 72.8623 81.9795C73.1423 81.7419 73.3278 81.3301 73.4189 80.7441H74.3613ZM81.1094 83H80.167V79.7139H76.583V83H75.6455V75.8906H76.583V78.9473H80.167V75.8906H81.1094V83ZM88.4922 84.3184H87.7646V75.8906H88.4922V84.3184ZM96.0752 80.2168V83H95.1377V75.8906H97.7598C98.5378 75.8906 99.1465 76.0892 99.5859 76.4863C100.029 76.8835 100.25 77.4092 100.25 78.0635C100.25 78.7536 100.034 79.2858 99.6006 79.6602C99.1709 80.0312 98.554 80.2168 97.75 80.2168H96.0752ZM96.0752 79.4502H97.7598C98.2611 79.4502 98.6452 79.333 98.9121 79.0986C99.179 78.861 99.3125 78.5192 99.3125 78.0732C99.3125 77.6501 99.179 77.3115 98.9121 77.0576C98.6452 76.8037 98.279 76.6719 97.8135 76.6621H96.0752V79.4502ZM102.389 82.2334H105.758V83H101.446V75.8906H102.389V82.2334ZM110.851 81.1445H107.872L107.203 83H106.236L108.951 75.8906H109.771L112.491 83H111.529L110.851 81.1445ZM108.155 80.373H110.572L109.361 77.0479L108.155 80.373ZM115.157 79.46L117.013 75.8906H118.077L115.626 80.3486V83H114.688V80.3486L112.237 75.8906H113.312L115.157 79.46ZM124.713 84.3184H123.985V75.8906H124.713V84.3184ZM131.358 83V75.8906H133.365C133.984 75.8906 134.531 76.0273 135.006 76.3008C135.481 76.5742 135.847 76.9632 136.104 77.4678C136.365 77.9723 136.497 78.5518 136.5 79.2061V79.6602C136.5 80.3307 136.37 80.9183 136.109 81.4229C135.852 81.9274 135.483 82.3148 135.001 82.585C134.522 82.8551 133.964 82.9935 133.326 83H131.358ZM132.296 76.6621V82.2334H133.282C134.005 82.2334 134.566 82.0088 134.967 81.5596C135.37 81.1104 135.572 80.4707 135.572 79.6406V79.2256C135.572 78.4183 135.382 77.7917 135.001 77.3457C134.623 76.8965 134.086 76.6686 133.39 76.6621H132.296ZM143.39 79.6748C143.39 80.3714 143.272 80.9801 143.038 81.501C142.804 82.0186 142.472 82.4141 142.042 82.6875C141.612 82.9609 141.111 83.0977 140.538 83.0977C139.978 83.0977 139.482 82.9609 139.049 82.6875C138.616 82.4108 138.279 82.0186 138.038 81.5107C137.8 80.9997 137.678 80.4089 137.672 79.7383V79.2256C137.672 78.542 137.791 77.9382 138.028 77.4141C138.266 76.89 138.601 76.4896 139.034 76.2129C139.47 75.9329 139.968 75.793 140.528 75.793C141.098 75.793 141.599 75.9313 142.032 76.208C142.468 76.4814 142.804 76.8802 143.038 77.4043C143.272 77.9251 143.39 78.5322 143.39 79.2256V79.6748ZM142.457 79.2158C142.457 78.3727 142.288 77.7266 141.949 77.2773C141.611 76.8249 141.137 76.5986 140.528 76.5986C139.936 76.5986 139.469 76.8249 139.127 77.2773C138.788 77.7266 138.614 78.3516 138.604 79.1523V79.6748C138.604 80.4919 138.775 81.1348 139.117 81.6035C139.462 82.069 139.936 82.3018 140.538 82.3018C141.144 82.3018 141.612 82.082 141.944 81.6426C142.276 81.1999 142.447 80.5667 142.457 79.7432V79.2158ZM146.329 80.7588L146.466 81.6963L146.666 80.8516L148.072 75.8906H148.863L150.235 80.8516L150.431 81.7109L150.582 80.7539L151.686 75.8906H152.628L150.904 83H150.05L148.585 77.8193L148.473 77.2773L148.36 77.8193L146.842 83H145.987L144.269 75.8906H145.206L146.329 80.7588ZM159.137 83H158.194L154.615 77.5215V83H153.673V75.8906H154.615L158.204 81.3936V75.8906H159.137V83ZM161.744 82.2334H165.113V83H160.802V75.8906H161.744V82.2334ZM171.329 79.6748C171.329 80.3714 171.212 80.9801 170.978 81.501C170.743 82.0186 170.411 82.4141 169.981 82.6875C169.552 82.9609 169.05 83.0977 168.478 83.0977C167.918 83.0977 167.421 82.9609 166.988 82.6875C166.555 82.4108 166.218 82.0186 165.978 81.5107C165.74 80.9997 165.618 80.4089 165.611 79.7383V79.2256C165.611 78.542 165.73 77.9382 165.968 77.4141C166.205 76.89 166.541 76.4896 166.974 76.2129C167.41 75.9329 167.908 75.793 168.468 75.793C169.037 75.793 169.539 75.9313 169.972 76.208C170.408 76.4814 170.743 76.8802 170.978 77.4043C171.212 77.9251 171.329 78.5322 171.329 79.2256V79.6748ZM170.396 79.2158C170.396 78.3727 170.227 77.7266 169.889 77.2773C169.55 76.8249 169.076 76.5986 168.468 76.5986C167.875 76.5986 167.408 76.8249 167.066 77.2773C166.728 77.7266 166.554 78.3516 166.544 79.1523V79.6748C166.544 80.4919 166.715 81.1348 167.057 81.6035C167.402 82.069 167.875 82.3018 168.478 82.3018C169.083 82.3018 169.552 82.082 169.884 81.6426C170.216 81.1999 170.387 80.5667 170.396 79.7432V79.2158ZM176.554 81.1445H173.575L172.906 83H171.939L174.654 75.8906H175.475L178.194 83H177.232L176.554 81.1445ZM173.858 80.373H176.275L175.064 77.0479L173.858 80.373ZM179.151 83V75.8906H181.158C181.777 75.8906 182.324 76.0273 182.799 76.3008C183.274 76.5742 183.64 76.9632 183.897 77.4678C184.158 77.9723 184.29 78.5518 184.293 79.2061V79.6602C184.293 80.3307 184.163 80.9183 183.902 81.4229C183.645 81.9274 183.276 82.3148 182.794 82.585C182.315 82.8551 181.757 82.9935 181.119 83H179.151ZM180.089 76.6621V82.2334H181.075C181.798 82.2334 182.359 82.0088 182.76 81.5596C183.163 81.1104 183.365 80.4707 183.365 79.6406V79.2256C183.365 78.4183 183.175 77.7917 182.794 77.3457C182.416 76.8965 181.879 76.6686 181.183 76.6621H180.089Z" fill="white"/>
</svg>
